<svg width="30" height="30" viewBox="0 0 30 30" fill="none" xmlns="http://www.w3.org/2000/svg">
<g clip-path="url(#clip0_640_12)">
<path fill-rule="evenodd" clip-rule="evenodd" d="M27.6806 0.140649C27.8164 0.224638 27.9285 0.341922 28.0063 0.48138C28.0841 0.620838 28.1249 0.777848 28.125 0.937524V29.0625C28.125 29.3112 28.0262 29.5496 27.8504 29.7254C27.6746 29.9013 27.4361 30 27.1875 30H21.5625C21.3139 30 21.0754 29.9013 20.8996 29.7254C20.7238 29.5496 20.625 29.3112 20.625 29.0625V26.25H18.75V29.0625C18.75 29.3112 18.6512 29.5496 18.4754 29.7254C18.2996 29.9013 18.0611 30 17.8125 30H0.9375C0.68886 30 0.450403 29.9013 0.274587 29.7254C0.0987721 29.5496 0 29.3112 0 29.0625V18.75C0.000149338 18.5533 0.0621527 18.3617 0.177234 18.2022C0.292316 18.0427 0.454646 17.9234 0.64125 17.8613L11.25 14.325V8.43752C11.25 8.26356 11.2984 8.09304 11.3898 7.94502C11.4812 7.797 11.612 7.67733 11.7675 7.5994L26.7675 0.0993987C26.9106 0.0277847 27.0696 -0.00602099 27.2294 0.00119942C27.3893 0.00841983 27.5446 0.056426 27.6806 0.140649V0.140649ZM11.25 16.3013L1.875 19.425V28.125H11.25V16.3013ZM13.125 28.125H16.875V25.3125C16.875 25.0639 16.9738 24.8254 17.1496 24.6496C17.3254 24.4738 17.5639 24.375 17.8125 24.375H21.5625C21.8111 24.375 22.0496 24.4738 22.2254 24.6496C22.4012 24.8254 22.5 25.0639 22.5 25.3125V28.125H26.25V2.4544L13.125 9.0169V28.125Z" fill="#fff"/>
<path d="M3.75 20.625H5.625V22.5H3.75V20.625ZM7.5 20.625H9.375V22.5H7.5V20.625ZM3.75 24.375H5.625V26.25H3.75V24.375ZM7.5 24.375H9.375V26.25H7.5V24.375ZM15 16.875H16.875V18.75H15V16.875ZM18.75 16.875H20.625V18.75H18.75V16.875ZM15 20.625H16.875V22.5H15V20.625ZM18.75 20.625H20.625V22.5H18.75V20.625ZM22.5 16.875H24.375V18.75H22.5V16.875ZM22.5 20.625H24.375V22.5H22.5V20.625ZM15 13.125H16.875V15H15V13.125ZM18.75 13.125H20.625V15H18.75V13.125ZM22.5 13.125H24.375V15H22.5V13.125ZM15 9.375H16.875V11.25H15V9.375ZM18.75 9.375H20.625V11.25H18.75V9.375ZM22.5 9.375H24.375V11.25H22.5V9.375ZM22.5 5.625H24.375V7.5H22.5V5.625Z" fill="#fff"/>
</g>
<defs>
<clipPath id="clip0_640_12">
<rect width="30" height="30" fill="white"/>
</clipPath>
</defs>
</svg>
