<svg width="210" height="50" viewBox="0 0 210 65" fill="none" xmlns="http://www.w3.org/2000/svg">
<path d="M4.2085 13.7422H16.2114C18.9341 13.7422 21.2334 14.1572 23.1094 14.9873C25.002 15.8174 26.438 17.0459 27.4175 18.6729C28.4136 20.2832 28.9116 22.2671 28.9116 24.6245C28.9116 26.2847 28.5713 27.8037 27.8906 29.1816C27.2266 30.543 26.2637 31.7051 25.002 32.668C23.7568 33.6143 22.2627 34.3198 20.5195 34.7847L19.1748 35.3076H7.89404L7.84424 31.3979H16.3608C18.0874 31.3979 19.5234 31.0991 20.6689 30.5015C21.8145 29.8872 22.6777 29.0654 23.2588 28.0361C23.8398 27.0068 24.1304 25.8696 24.1304 24.6245C24.1304 23.23 23.8564 22.0098 23.3086 20.9639C22.7607 19.918 21.8975 19.1128 20.7188 18.5483C19.5566 17.9673 18.0542 17.6768 16.2114 17.6768H9.01465V50H4.2085V13.7422ZM25.4004 50L16.585 33.5645L21.5903 33.5396L30.5303 49.7012V50H25.4004Z" fill="#5624E3"/>
<path d="M46.02 50H38.4497L38.4995 46.0903H46.02C48.6099 46.0903 50.7681 45.5508 52.4946 44.4717C54.2212 43.376 55.5161 41.8486 56.3794 39.8896C57.2593 37.9141 57.6992 35.6064 57.6992 32.9668V30.7505C57.6992 28.6753 57.4502 26.8325 56.9521 25.2222C56.4541 23.5952 55.7236 22.2256 54.7607 21.1133C53.7979 19.9844 52.6191 19.1294 51.2246 18.5483C49.8467 17.9673 48.2612 17.6768 46.4683 17.6768H38.3003V13.7422H46.4683C48.8423 13.7422 51.0088 14.1406 52.9678 14.9375C54.9268 15.7178 56.6118 16.855 58.0229 18.3491C59.4507 19.8267 60.5464 21.6196 61.3101 23.728C62.0737 25.8198 62.4556 28.1772 62.4556 30.8003V32.9668C62.4556 35.5898 62.0737 37.9556 61.3101 40.064C60.5464 42.1558 59.4424 43.9404 57.998 45.418C56.5703 46.8955 54.8438 48.0327 52.8184 48.8296C50.8096 49.6099 48.5435 50 46.02 50ZM41.0146 13.7422V50H36.2085V13.7422H41.0146Z" fill="#5624E3"/>
<path d="M79.71 44.276H85.858V50H79.71V44.276ZM89.9845 15.603H95.4435L103.977 45.124H104.083L112.616 15.603H118.075L126.608 45.124H126.714L135.247 15.603H140.441L129.364 50H123.375L115.16 21.38L106.733 50H100.744L89.9845 15.603ZM155.799 50.53C147.955 50.53 144.033 47.9153 144.033 42.686V32.563C144.033 29.4537 144.916 27.2277 146.683 25.885C148.485 24.507 151.382 23.818 155.375 23.818C159.155 23.818 161.876 24.4717 163.537 25.779C165.233 27.0863 166.081 29.3477 166.081 32.563V38.234H148.856V42.103C148.856 43.8697 149.474 45.1417 150.711 45.919C151.947 46.6963 153.855 47.085 156.435 47.085C158.873 47.085 161.752 46.661 165.074 45.813V49.47C161.823 50.1767 158.731 50.53 155.799 50.53ZM161.311 35.107V31.079C161.311 29.5243 160.834 28.4643 159.88 27.899C158.961 27.2983 157.371 26.998 155.11 26.998C152.919 26.998 151.329 27.2983 150.34 27.899C149.35 28.4643 148.856 29.5243 148.856 31.079V35.107H161.311ZM184.798 50.53C182.89 50.53 181.353 50.424 180.187 50.212C179.056 50.0353 177.925 49.682 176.795 49.152C174.498 48.0567 173.35 45.548 173.35 41.626V12.9H178.12V20.585V23.606C178.084 24.5247 178.067 25.5493 178.067 26.68C178.243 25.8673 178.985 25.1783 180.293 24.613C181.635 24.083 183.579 23.818 186.123 23.818C193.189 23.818 196.723 26.2383 196.723 31.079V41.626C196.723 43.1453 196.493 44.4703 196.034 45.601C195.61 46.7317 195.044 47.615 194.338 48.251C193.702 48.8517 192.818 49.3287 191.688 49.682C190.592 50.0353 189.497 50.265 188.402 50.371C187.412 50.477 186.211 50.53 184.798 50.53ZM184.904 47.403C186.741 47.403 188.137 47.2793 189.091 47.032C190.08 46.7493 190.787 46.2547 191.211 45.548C191.635 44.8413 191.847 43.7637 191.847 42.315V32.245C191.847 30.7963 191.635 29.7187 191.211 29.012C190.787 28.27 190.08 27.793 189.091 27.581C188.137 27.3337 186.723 27.21 184.851 27.21C183.119 27.21 181.777 27.3513 180.823 27.634C179.869 27.9167 179.18 28.429 178.756 29.171C178.332 29.8777 178.12 30.9023 178.12 32.245V42.315C178.12 43.7637 178.314 44.8413 178.703 45.548C179.127 46.2547 179.816 46.7493 180.77 47.032C181.724 47.2793 183.102 47.403 184.904 47.403Z" fill="#494949"/>
<path d="M27 48C27 48.5 28.664 51.1961 29.5 52C42.5 64.5 198.5 58 198.5 58" stroke="#5624E3" stroke-width="4.5" stroke-linecap="round"/>
<path d="M209.288 57.3977L198.364 63.6294L197.763 52.3625L209.288 57.3977Z" fill="#5624E3"/>
</svg>
