<svg width="30" height="30" viewBox="0 0 30 30" fill="none" xmlns="http://www.w3.org/2000/svg">
<path d="M16.875 24.375H24.375V26.25H16.875V24.375ZM16.875 20.625H28.125V22.5H16.875V20.625ZM16.875 16.875H28.125V18.75H16.875V16.875Z" fill="#fff"/>
<path d="M19.2647 10.5159L15 1.875L10.7353 10.5159L1.20001 11.9016L8.10001 18.6281L6.47064 28.125L13.125 24.6272V22.5084L8.96157 24.6975L9.94783 18.945L10.1147 17.9728L9.40876 17.2856L5.22939 13.2103L11.0053 12.3713L11.9803 12.2297L12.4172 11.3456L15 6.11156L17.5828 11.3456L18.0197 12.2297L18.9947 12.3713L25.9828 13.3884L26.25 11.5313L19.2647 10.5159Z" fill="#fff"/>
</svg>
