<svg width="30" height="30" viewBox="0 0 30 30" fill="none" xmlns="http://www.w3.org/2000/svg">
<path d="M27.6855 12.0703H20.1855C20.0566 12.0703 19.9512 12.1758 19.9512 12.3047V13.7109C19.9512 13.8398 20.0566 13.9453 20.1855 13.9453H27.6855C27.8145 13.9453 27.9199 13.8398 27.9199 13.7109V12.3047C27.9199 12.1758 27.8145 12.0703 27.6855 12.0703ZM23.7598 16.0547H20.1855C20.0566 16.0547 19.9512 16.1602 19.9512 16.2891V17.6953C19.9512 17.8242 20.0566 17.9297 20.1855 17.9297H23.7598C23.8887 17.9297 23.9941 17.8242 23.9941 17.6953V16.2891C23.9941 16.1602 23.8887 16.0547 23.7598 16.0547ZM13.9834 9.44824H12.7148C12.5332 9.44824 12.3867 9.59473 12.3867 9.77637V17.042C12.3867 17.1475 12.4365 17.2441 12.5215 17.3057L16.8838 20.4873C17.0303 20.5928 17.2354 20.5635 17.3408 20.417L18.0938 19.3887V19.3857C18.1992 19.2393 18.167 19.0342 18.0205 18.9287L14.3086 16.2451V9.77637C14.3115 9.59473 14.1621 9.44824 13.9834 9.44824V9.44824Z" fill="#fff"/>
<path d="M23.5781 19.7432H21.8848C21.7207 19.7432 21.5654 19.8282 21.4775 19.9688C21.1055 20.5577 20.6719 21.1026 20.1738 21.6006C19.3154 22.459 18.3164 23.1329 17.206 23.6016C16.0547 24.0879 14.833 24.334 13.5732 24.334C12.3105 24.334 11.0889 24.0879 9.94042 23.6016C8.83007 23.1329 7.83104 22.459 6.97265 21.6006C6.11425 20.7422 5.44042 19.7432 4.97167 18.6329C4.48534 17.4844 4.23925 16.2627 4.23925 15C4.23925 13.7373 4.48534 12.5186 4.97167 11.3672C5.44042 10.2569 6.11425 9.25785 6.97265 8.39945C7.83104 7.54106 8.83007 6.86723 9.94042 6.39848C11.0889 5.91215 12.3135 5.66605 13.5732 5.66605C14.8359 5.66605 16.0576 5.91215 17.206 6.39848C18.3164 6.86723 19.3154 7.54106 20.1738 8.39945C20.6719 8.8975 21.1055 9.44242 21.4775 10.0313C21.5654 10.1719 21.7207 10.2569 21.8848 10.2569H23.5781C23.7803 10.2569 23.9092 10.0459 23.8183 9.86723C21.9082 6.06742 18.0351 3.5977 13.7109 3.54789C7.37987 3.46879 2.12108 8.65141 2.10936 14.9766C2.09765 21.3135 7.23339 26.4551 13.5703 26.4551C17.9502 26.4551 21.8877 23.9766 23.8183 20.1329C23.9092 19.9541 23.7773 19.7432 23.5781 19.7432V19.7432Z" fill="#fff"/>
</svg>
