<svg width="46" height="46" viewBox="0 0 46 46" fill="none" xmlns="http://www.w3.org/2000/svg">
<path fill-rule="evenodd" clip-rule="evenodd" d="M13.5521 0.220813C15.9959 0.108313 16.775 0.083313 23 0.083313C29.225 0.083313 30.0042 0.110396 32.4459 0.220813C34.8875 0.33123 36.5542 0.720813 38.0125 1.2854C39.5396 1.86248 40.925 2.76456 42.0709 3.93123C43.2375 5.07498 44.1375 6.45831 44.7125 7.98748C45.2792 9.44581 45.6667 11.1125 45.7792 13.55C45.8917 15.9979 45.9167 16.7771 45.9167 23C45.9167 29.225 45.8896 30.0041 45.7792 32.4479C45.6688 34.8854 45.2792 36.5521 44.7125 38.0104C44.1375 39.5398 43.236 40.9254 42.0709 42.0708C40.925 43.2375 39.5396 44.1375 38.0125 44.7125C36.5542 45.2791 34.8875 45.6666 32.45 45.7791C30.0042 45.8916 29.225 45.9166 23 45.9166C16.775 45.9166 15.9959 45.8896 13.5521 45.7791C11.1146 45.6687 9.44796 45.2791 7.98962 44.7125C6.46029 44.1374 5.07467 43.2359 3.92921 42.0708C2.76333 40.9264 1.86111 39.5414 1.28546 38.0125C0.720874 36.5541 0.333374 34.8875 0.220874 32.45C0.108374 30.0021 0.083374 29.2229 0.083374 23C0.083374 16.775 0.110457 15.9958 0.220874 13.5541C0.331291 11.1125 0.720874 9.44581 1.28546 7.98748C1.86196 6.45848 2.76487 5.07355 3.93129 3.92915C5.07512 2.76352 6.45936 1.86132 7.98754 1.2854C9.44587 0.720813 11.1125 0.333313 13.55 0.220813H13.5521ZM32.2605 4.34581C29.8438 4.2354 29.1188 4.21248 23 4.21248C16.8813 4.21248 16.1563 4.2354 13.7396 4.34581C11.5042 4.4479 10.2917 4.82081 9.48337 5.1354C8.41462 5.55206 7.65004 6.04581 6.84796 6.8479C6.08763 7.58759 5.5025 8.48807 5.13546 9.48331C4.82087 10.2916 4.44796 11.5041 4.34587 13.7396C4.23546 16.1562 4.21254 16.8812 4.21254 23C4.21254 29.1187 4.23546 29.8437 4.34587 32.2604C4.44796 34.4958 4.82087 35.7083 5.13546 36.5166C5.50212 37.5104 6.08754 38.4125 6.84796 39.1521C7.58754 39.9125 8.48962 40.4979 9.48337 40.8646C10.2917 41.1791 11.5042 41.5521 13.7396 41.6541C16.1563 41.7646 16.8792 41.7875 23 41.7875C29.1209 41.7875 29.8438 41.7646 32.2605 41.6541C34.4959 41.5521 35.7084 41.1791 36.5167 40.8646C37.5855 40.4479 38.35 39.9541 39.1521 39.1521C39.9125 38.4125 40.498 37.5104 40.8646 36.5166C41.1792 35.7083 41.5521 34.4958 41.6542 32.2604C41.7646 29.8437 41.7875 29.1187 41.7875 23C41.7875 16.8812 41.7646 16.1562 41.6542 13.7396C41.5521 11.5041 41.1792 10.2916 40.8646 9.48331C40.448 8.41456 39.9542 7.64998 39.1521 6.8479C38.4124 6.08763 37.5119 5.5025 36.5167 5.1354C35.7084 4.82081 34.4959 4.4479 32.2605 4.34581V4.34581ZM20.073 30.0646C21.7077 30.745 23.5279 30.8369 25.2228 30.3244C26.9177 29.8119 28.3821 28.7269 29.3659 27.2547C30.3497 25.7824 30.7918 24.0143 30.6168 22.2523C30.4418 20.4903 29.6605 18.8437 28.4063 17.5937C27.6068 16.7947 26.6401 16.1829 25.5757 15.8024C24.5114 15.4218 23.3759 15.282 22.2511 15.3929C21.1262 15.5039 20.0399 15.8628 19.0705 16.444C18.101 17.0252 17.2724 17.814 16.6444 18.7538C16.0164 19.6936 15.6046 20.761 15.4386 21.8791C15.2726 22.9971 15.3566 24.1381 15.6845 25.2198C16.0124 26.3015 16.576 27.2971 17.3349 28.1348C18.0937 28.9725 19.0288 29.6316 20.073 30.0646ZM14.6709 14.6708C15.7647 13.577 17.0632 12.7094 18.4923 12.1174C19.9214 11.5254 21.4532 11.2208 23 11.2208C24.5469 11.2208 26.0786 11.5254 27.5078 12.1174C28.9369 12.7094 30.2354 13.577 31.3292 14.6708C32.423 15.7646 33.2907 17.0631 33.8826 18.4923C34.4746 19.9214 34.7793 21.4531 34.7793 23C34.7793 24.5468 34.4746 26.0786 33.8826 27.5077C33.2907 28.9368 32.423 30.2353 31.3292 31.3291C29.1202 33.5382 26.1241 34.7792 23 34.7792C19.876 34.7792 16.8799 33.5382 14.6709 31.3291C12.4618 29.1201 11.2208 26.124 11.2208 23C11.2208 19.8759 12.4618 16.8798 14.6709 14.6708V14.6708ZM37.3917 12.975C37.6628 12.7193 37.8798 12.4118 38.0298 12.0708C38.1799 11.7297 38.2601 11.362 38.2655 10.9894C38.2709 10.6168 38.2015 10.247 38.0615 9.90167C37.9214 9.55638 37.7134 9.24271 37.45 8.97923C37.1865 8.71575 36.8728 8.50781 36.5275 8.36772C36.1822 8.22764 35.8123 8.15826 35.4398 8.16369C35.0672 8.16913 34.6995 8.24926 34.3584 8.39935C34.0174 8.54944 33.7099 8.76643 33.4542 9.03748C32.9569 9.56462 32.6847 10.2648 32.6953 10.9894C32.7058 11.714 32.9984 12.406 33.5108 12.9184C34.0232 13.4308 34.7152 13.7234 35.4398 13.7339C36.1644 13.7445 36.8646 13.4722 37.3917 12.975V12.975Z" fill="white"/>
</svg>
